<svg xmlns="http://www.w3.org/2000/svg" xmlns:xlink="http://www.w3.org/1999/xlink" enable-background="new 0 0 64 64" viewBox="0 0 64 64"><defs><linearGradient id="a"><stop offset="0" stop-color="#000092"/><stop offset="1" stop-color="#ff00f3"/></linearGradient><linearGradient id="b" x1="9.5" x2="50.161" y1="32" y2="32" gradientUnits="userSpaceOnUse" xlink:href="#a"/></defs><path fill="url(#b)" d="M 19 6.5 C 17.622 6.5 16.5 7.622 16.5 9 L 16.5 21 C 16.5 22.378 17.622 23.5 19 23.5 L 32.5 23.5 L 32.5 33.478516 L 30 33.478516 C 29.867 33.478516 29.740484 33.532 29.646484 33.625 L 27.792969 35.478516 L 26 35.478516 L 24.5 35.478516 L 24.5 34.978516 C 24.5 34.702516 24.276 34.478516 24 34.478516 L 18 34.478516 L 10.5 34.478516 L 10 34.478516 C 9.724 34.478516 9.5 34.702516 9.5 34.978516 C 9.5 35.254516 9.724 35.478516 10 35.478516 L 10.5 35.478516 L 17.5 35.478516 L 17.5 47.478516 L 10.5 47.478516 L 10 47.478516 C 9.724 47.478516 9.5 47.702516 9.5 47.978516 C 9.5 48.254516 9.724 48.478516 10 48.478516 L 10.5 48.478516 L 18 48.478516 L 24 48.478516 C 24.276 48.478516 24.5 48.254516 24.5 47.978516 L 24.5 46.478516 L 25.792969 46.478516 L 27.646484 48.332031 C 27.740484 48.426031 27.868953 48.478516 28.001953 48.478516 L 32.501953 48.478516 L 32.501953 57 C 32.501953 57.276 32.725953 57.5 33.001953 57.5 L 38.001953 57.5 C 38.277953 57.5 38.501953 57.276 38.501953 57 L 38.501953 48.478516 L 39.501953 48.478516 C 40.604953 48.478516 41.501953 47.581516 41.501953 46.478516 C 41.501953 45.878516 41.230547 45.345516 40.810547 44.978516 C 41.230547 44.611516 41.501953 44.078516 41.501953 43.478516 C 41.501953 42.878516 41.230547 42.345516 40.810547 41.978516 C 41.230547 41.611516 41.501953 41.078516 41.501953 40.478516 C 41.501953 39.878516 41.230547 39.345516 40.810547 38.978516 C 41.230547 38.611516 41.501953 38.078516 41.501953 37.478516 C 41.501953 36.375516 40.604953 35.478516 39.501953 35.478516 L 38.501953 35.478516 L 38.501953 23.5 L 52 23.5 C 53.379 23.5 54.5 22.378 54.5 21 L 54.5 9 C 54.5 7.622 53.379 6.5 52 6.5 L 19 6.5 z M 19 7.5 L 52 7.5 C 52.827 7.5 53.5 8.173 53.5 9 L 53.5 21 C 53.5 21.827 52.827 22.5 52 22.5 L 38 22.5 L 33 22.5 L 19 22.5 C 18.173 22.5 17.5 21.827 17.5 21 L 17.5 9 C 17.5 8.173 18.173 7.5 19 7.5 z M 19 8.5 C 18.724 8.5 18.5 8.724 18.5 9 L 18.5 12.5 L 19.5 12.5 L 19.5 9.5 L 51.5 9.5 L 51.5 12.5 L 52.5 12.5 L 52.5 9 C 52.5 8.724 52.276 8.5 52 8.5 L 19 8.5 z M 26.5 11.5 C 26.224 11.5 26 11.724 26 12 L 26 17 L 26 18 C 26 18.276 26.224 18.5 26.5 18.5 L 30.5 18.5 C 30.776 18.5 31 18.276 31 18 L 31 15 C 31 14.724 30.776 14.5 30.5 14.5 L 28.5 14.5 C 28.224 14.5 28 14.724 28 15 C 28 15.276 28.224 15.5 28.5 15.5 L 30 15.5 L 30 17.5 L 27 17.5 L 27 17 L 27 12.5 L 30 12.5 L 30 13 C 30 13.276 30.224 13.5 30.5 13.5 C 30.776 13.5 31 13.276 31 13 L 31 12 C 31 11.724 30.776 11.5 30.5 11.5 L 26.5 11.5 z M 33.5 11.5 C 33.224 11.5 33 11.724 33 12 L 33 15 C 33 15.276 33.224 15.5 33.5 15.5 L 37 15.5 L 37 17.5 L 34 17.5 L 34 17 C 34 16.724 33.776 16.5 33.5 16.5 C 33.224 16.5 33 16.724 33 17 L 33 18 C 33 18.276 33.224 18.5 33.5 18.5 L 37.5 18.5 C 37.776 18.5 38 18.276 38 18 L 38 15 C 38 14.724 37.776 14.5 37.5 14.5 L 34 14.5 L 34 12.5 L 37 12.5 L 37 13 C 37 13.276 37.224 13.5 37.5 13.5 C 37.776 13.5 38 13.276 38 13 L 38 12 C 38 11.724 37.776 11.5 37.5 11.5 L 33.5 11.5 z M 40.5 11.5 C 40.224 11.5 40 11.724 40 12 L 40 13 C 40 13.276 40.224 13.5 40.5 13.5 C 40.776 13.5 41 13.276 41 13 L 41 12.5 L 42 12.5 L 42 18 C 42 18.276 42.224 18.5 42.5 18.5 C 42.776 18.5 43 18.276 43 18 L 43 12.5 L 44 12.5 L 44 13 C 44 13.276 44.224 13.5 44.5 13.5 C 44.776 13.5 45 13.276 45 13 L 45 12 C 45 11.724 44.776 11.5 44.5 11.5 L 40.5 11.5 z M 18.5 13.5 L 18.5 16.5 L 19.5 16.5 L 19.5 13.5 L 18.5 13.5 z M 18.5 17.5 L 18.5 21 C 18.5 21.276 18.724 21.5 19 21.5 L 52 21.5 C 52.276 21.5 52.5 21.276 52.5 21 L 52.5 17.5 L 51.5 17.5 L 51.5 20.5 L 19.5 20.5 L 19.5 17.5 L 18.5 17.5 z M 33.5 23.5 L 37.5 23.5 L 37.5 35.478516 L 33.5 35.478516 L 33.5 23.5 z M 30.207031 34.478516 L 32.496094 34.478516 L 32.480469 35.974609 C 32.479469 36.108609 32.531 36.235078 32.625 36.330078 C 32.629 36.334078 32.634672 36.335844 32.638672 36.339844 C 32.729672 36.437844 32.857953 36.5 33.001953 36.5 L 38.001953 36.5 C 38.038953 36.5 38.071469 36.486516 38.105469 36.478516 L 39.5 36.478516 C 40.052 36.478516 40.5 36.927516 40.5 37.478516 C 40.5 38.029516 40.052 38.478516 39.5 38.478516 L 35.978516 38.478516 L 34.978516 38.478516 C 34.702516 38.478516 34.478516 38.702516 34.478516 38.978516 C 34.478516 39.254516 34.702516 39.478516 34.978516 39.478516 L 35.978516 39.478516 L 39.5 39.478516 C 40.052 39.478516 40.5 39.927516 40.5 40.478516 C 40.5 41.029516 40.052 41.478516 39.5 41.478516 L 35.978516 41.478516 L 34.978516 41.478516 C 34.702516 41.478516 34.478516 41.702516 34.478516 41.978516 C 34.478516 42.254516 34.702516 42.478516 34.978516 42.478516 L 35.978516 42.478516 L 39.5 42.478516 C 40.052 42.478516 40.5 42.927516 40.5 43.478516 C 40.5 44.029516 40.052 44.478516 39.5 44.478516 L 35.978516 44.478516 L 34.978516 44.478516 C 34.702516 44.478516 34.478516 44.702516 34.478516 44.978516 C 34.478516 45.254516 34.702516 45.478516 34.978516 45.478516 L 35.978516 45.478516 L 39.5 45.478516 C 40.052 45.478516 40.5 45.927516 40.5 46.478516 C 40.5 47.029516 40.052 47.478516 39.5 47.478516 L 38 47.478516 L 35.978516 47.478516 L 28.207031 47.478516 L 26.353516 45.626953 C 26.307516 45.580953 26.252406 45.543578 26.191406 45.517578 C 26.130406 45.492578 26.065 45.478516 26 45.478516 L 24.5 45.478516 L 24.5 36.478516 L 26 36.478516 L 28 36.478516 C 28.133 36.478516 28.259516 36.425031 28.353516 36.332031 L 30.207031 34.478516 z M 18.5 35.478516 L 23.5 35.478516 L 23.5 35.978516 L 23.5 45.978516 L 23.5 47.478516 L 18.5 47.478516 L 18.5 35.478516 z M 20.96875 43.478516 C 20.14175 43.478516 19.46875 44.151516 19.46875 44.978516 C 19.46875 45.805516 20.14175 46.478516 20.96875 46.478516 C 21.79575 46.478516 22.46875 45.805516 22.46875 44.978516 C 22.46875 44.151516 21.79575 43.478516 20.96875 43.478516 z M 20.96875 44.478516 C 21.24475 44.478516 21.46875 44.702516 21.46875 44.978516 C 21.46875 45.254516 21.24475 45.478516 20.96875 45.478516 C 20.69275 45.478516 20.46875 45.254516 20.46875 44.978516 C 20.46875 44.702516 20.69275 44.478516 20.96875 44.478516 z M 33.5 48.5 L 37.5 48.5 L 37.5 56.5 L 33.5 56.5 L 33.5 48.5 z "/></svg>